<svg version="1.1" id="Layer_1" xmlns="http://www.w3.org/2000/svg" xmlns:xlink="http://www.w3.org/1999/xlink" x="0px" y="0px"
	 width="100%" viewBox="0 0 200 200" enable-background="new 0 0 200 200" xml:space="preserve">
<path fill="#FFFDFB" opacity="1.000000" stroke="none" 
	d="
M84.000000,1.000000 
	C122.920113,1.000000 161.840225,1.000000 201.000000,1.000000 
	C201.000000,33.020496 201.000000,65.041588 200.696884,97.546333 
	C200.192734,98.052902 199.991714,98.075813 199.790863,97.687225 
	C199.115067,93.872162 198.654404,90.408623 197.726074,87.075333 
	C193.605484,72.279900 184.412384,60.723087 173.786194,49.787216 
	C173.133438,49.069843 172.497147,48.667759 171.846863,48.217480 
	C171.832870,48.169285 171.737305,48.138626 171.722794,47.796631 
	C170.132156,45.978024 168.556046,44.501411 166.990265,43.012627 
	C167.000610,43.000458 166.977875,43.021217 166.880127,42.747093 
	C166.279953,42.219955 165.777512,41.966946 165.232208,41.818085 
	C165.189331,41.922234 165.229446,41.700581 165.133545,41.466751 
	C164.751480,41.064838 164.465332,40.896748 164.026642,40.500095 
	C163.323746,39.794662 162.773361,39.317791 162.134399,38.547596 
	C161.407242,37.791599 160.768677,37.328930 159.950165,36.589039 
	C158.465042,35.635040 157.159836,34.958260 155.609894,34.044182 
	C135.840118,19.339128 114.357704,9.112850 90.599876,3.733561 
	C88.310951,3.215296 86.195816,1.929497 84.000000,1.000000 
z"/>
<path fill="#FEFDFD" opacity="1.000000" stroke="none" 
	d="
M201.000000,110.000000 
	C201.000000,140.270615 201.000000,170.541229 201.000000,201.000000 
	C160.979309,201.000000 120.958313,201.000000 80.613922,200.619751 
	C89.176262,198.151382 98.061996,196.063248 107.334000,193.964722 
	C124.318069,188.668716 139.523972,180.643616 153.570816,170.416565 
	C167.602386,160.200623 180.378098,148.733932 189.467819,133.243088 
	C194.307693,127.101097 196.423492,120.159317 198.376312,112.886360 
	C199.433807,111.825272 200.216904,110.912636 201.000000,110.000000 
z"/>
<path fill="#FEFCFC" opacity="1.000000" stroke="none" 
	d="
M65.000000,201.000000 
	C43.732132,201.000000 22.464264,201.000000 1.000000,201.000000 
	C1.000000,174.979431 1.000000,148.958374 1.368354,122.639755 
	C2.894363,127.572319 3.838281,132.861053 5.253231,138.020615 
	C8.402451,149.504105 11.850929,160.895950 19.150423,170.960770 
	C19.623613,171.686111 20.016155,172.122986 20.530912,172.876404 
	C27.110741,182.731873 35.014305,190.574478 46.304970,195.013123 
	C50.526463,196.440155 54.446812,197.645782 58.361233,198.870346 
	C60.579170,199.564194 62.787399,200.289093 65.000000,201.000000 
z"/>
<path fill="#FEFDFA" opacity="1.000000" stroke="none" 
	d="
M1.000000,78.000000 
	C1.000000,52.418045 1.000000,26.836092 1.000000,1.000000 
	C19.353445,1.000000 37.708065,1.000000 56.384186,1.328608 
	C54.951073,2.464557 53.270359,3.553548 51.430573,4.036257 
	C29.843889,9.700001 18.802139,25.624102 11.147299,45.306793 
	C10.879855,46.166477 10.780889,46.767635 10.378292,47.572250 
	C9.429226,49.846630 8.783790,51.917553 7.970267,54.317116 
	C7.470833,56.070030 7.139485,57.494305 6.577368,59.137909 
	C6.212352,60.185390 6.078106,61.013542 5.769559,61.970509 
	C5.385579,62.355881 5.365842,62.626225 5.364404,63.259613 
	C5.083198,64.636070 4.973637,65.663269 4.545145,66.833580 
	C3.901824,67.985718 3.577435,68.994736 3.165805,70.415489 
	C2.385709,73.218147 1.692854,75.609070 1.000000,78.000000 
z"/>
<path fill="#F07D53" opacity="1.000000" stroke="none" 
	d="
M11.315776,45.048271 
	C18.802139,25.624102 29.843889,9.700001 51.430573,4.036257 
	C53.270359,3.553548 54.951073,2.464557 56.852844,1.328608 
	C65.687561,1.000000 74.375130,1.000000 83.531342,1.000000 
	C86.195816,1.929497 88.310951,3.215296 90.599876,3.733561 
	C114.357704,9.112850 135.840118,19.339128 155.637985,34.369179 
	C155.969269,35.582241 156.027725,36.233013 155.703690,36.919754 
	C154.557297,36.956520 153.793365,36.957317 152.868988,36.660042 
	C146.138382,31.909628 139.568237,27.457291 132.638275,22.963589 
	C128.243332,20.969408 124.204857,19.023491 120.173668,17.062593 
	C100.217285,7.355196 79.401520,2.349237 57.144135,6.045489 
	C44.839359,8.088926 34.225258,13.271262 26.693815,24.127113 
	C24.598118,26.181364 22.795290,28.087524 20.780518,30.100746 
	C20.301228,30.403936 20.131493,30.663815 20.038155,31.239788 
	C20.005442,31.660555 19.993944,31.828981 19.679134,32.155895 
	C17.573465,35.870014 15.771110,39.425644 13.726102,43.145882 
	C12.760892,43.889744 12.038334,44.469009 11.315776,45.048271 
z"/>
<path fill="#EA6B50" opacity="1.000000" stroke="none" 
	d="
M1.000000,78.375000 
	C1.692854,75.609070 2.385709,73.218147 3.460392,70.418274 
	C4.235230,69.996330 4.628242,69.983345 5.410830,69.980286 
	C6.727169,70.229347 8.300587,70.241455 8.477040,70.744034 
	C9.739021,74.338463 11.595692,74.483810 14.295406,72.229027 
	C14.673100,71.913582 15.578414,72.125763 16.213715,72.238708 
	C23.879822,73.601639 31.258356,72.627937 38.906269,69.353569 
	C38.406136,71.296417 37.992607,72.902832 37.523251,74.726105 
	C41.300495,73.776390 43.778774,67.939468 47.805199,73.272751 
	C45.421814,76.114822 40.571640,76.459740 40.976257,81.626633 
	C39.249073,85.019257 37.660961,88.099243 36.020340,90.810852 
	C34.262920,88.339203 32.778553,84.672897 30.815952,84.395973 
	C20.905888,82.997688 10.370642,79.895630 2.422100,89.665543 
	C2.178722,89.964684 1.484194,89.896782 1.000000,90.000000 
	C1.000000,88.285645 1.000000,86.571281 1.334559,84.379105 
	C1.446079,82.934196 1.223039,81.967094 1.000000,81.000000 
	C1.000000,80.250000 1.000000,79.500000 1.000000,78.375000 
z"/>
<path fill="#ED714F" opacity="1.000000" stroke="none" 
	d="
M1.000000,90.333328 
	C1.484194,89.896782 2.178722,89.964684 2.422100,89.665543 
	C10.370642,79.895630 20.905888,82.997688 30.815952,84.395973 
	C32.778553,84.672897 34.262920,88.339203 36.021851,91.164337 
	C36.011837,92.591492 35.947803,93.296776 35.636314,94.239609 
	C34.225563,98.731682 31.148697,100.198303 27.084799,99.982376 
	C19.225981,99.564804 11.372663,99.043732 3.846331,98.585609 
	C2.799810,96.164253 1.899906,94.082123 1.000001,92.000000 
	C1.000000,91.555557 1.000000,91.111107 1.000000,90.333328 
z"/>
<path fill="#EF784F" opacity="1.000000" stroke="none" 
	d="
M1.000001,92.468536 
	C1.899906,94.082123 2.799810,96.164253 3.846331,98.585609 
	C11.372663,99.043732 19.225981,99.564804 27.084799,99.982376 
	C31.148697,100.198303 34.225563,98.731682 35.774788,94.676132 
	C37.087101,100.917839 38.013477,106.960579 38.609558,112.947594 
	C37.006248,109.408165 34.019329,111.239784 32.065033,111.320084 
	C22.345898,111.719467 12.181423,107.788536 2.838444,113.755829 
	C2.112038,113.341583 1.556018,113.170792 0.999999,113.000000 
	C1.000000,106.312355 1.000000,99.624710 1.000001,92.468536 
z"/>
<path fill="#D65F6C" opacity="1.000000" stroke="none" 
	d="
M65.466118,201.000000 
	C62.787399,200.289093 60.579170,199.564194 58.361233,198.870346 
	C54.446812,197.645782 50.526463,196.440155 46.370670,194.689545 
	C47.079998,193.764252 48.027245,193.376053 49.356258,193.037140 
	C51.496029,193.408142 53.254032,193.729828 55.351040,194.102020 
	C56.788040,194.445435 57.886036,194.738358 59.258743,195.299072 
	C61.351505,195.707077 63.169552,195.847336 65.321503,196.007355 
	C66.101326,196.032761 66.547249,196.038361 67.295868,196.314667 
	C74.075592,196.073273 80.552620,195.561188 87.356781,195.045380 
	C88.119286,195.015808 88.554657,194.989975 89.393814,194.977875 
	C92.918243,194.033508 96.038879,193.075378 99.465683,192.118958 
	C100.179184,192.095200 100.586525,192.069717 101.388535,192.038483 
	C102.819420,191.923630 103.855644,191.814560 105.161957,191.727890 
	C105.612572,191.758011 105.793091,191.765701 105.993965,192.091492 
	C106.325462,192.931427 106.636597,193.453278 106.947739,193.975128 
	C98.061996,196.063248 89.176262,198.151382 80.145264,200.619751 
	C75.310745,201.000000 70.621490,201.000000 65.466118,201.000000 
z"/>
<path fill="#D67770" opacity="1.000000" stroke="none" 
	d="
M0.999999,113.449982 
	C1.556018,113.170792 2.112038,113.341583 2.832578,114.167953 
	C3.333343,117.215591 3.669588,119.607643 4.000301,122.437836 
	C4.991695,127.590614 5.988621,132.305252 6.992198,137.263947 
	C6.998848,137.508011 7.022720,137.995728 7.019424,138.389313 
	C8.027239,142.191772 9.038348,145.600662 10.138521,149.233063 
	C10.413811,149.735703 10.667349,149.924408 11.030190,150.381683 
	C12.372339,153.165253 13.672500,155.589828 14.983469,158.384613 
	C16.662321,162.158112 18.330362,165.561401 19.774174,169.098969 
	C19.389885,169.712952 19.229828,170.192627 19.069771,170.672302 
	C11.850929,160.895950 8.402451,149.504105 5.253231,138.020615 
	C3.838281,132.861053 2.894363,127.572319 1.368354,122.171097 
	C1.000000,119.299988 1.000000,116.599968 0.999999,113.449982 
z"/>
<path fill="#DB8979" opacity="1.000000" stroke="none" 
	d="
M201.000000,109.539368 
	C200.216904,110.912636 199.433807,111.825272 198.284210,112.879799 
	C197.917725,113.021690 197.749420,112.945847 197.820419,112.627670 
	C197.903671,111.875435 197.915939,111.441368 197.956223,110.632126 
	C197.981903,109.504929 197.979538,108.752914 197.990662,107.666519 
	C198.006454,106.885910 198.008774,106.439674 198.168671,105.642281 
	C198.814392,102.893654 199.302536,100.496185 199.790695,98.098717 
	C199.991714,98.075813 200.192734,98.052902 200.696884,98.014992 
	C201.000000,101.692909 201.000000,105.385818 201.000000,109.539368 
z"/>
<path fill="#ED714F" opacity="1.000000" stroke="none" 
	d="
M1.000000,81.375000 
	C1.223039,81.967094 1.446079,82.934196 1.334559,83.950645 
	C1.000000,83.250000 1.000000,82.500000 1.000000,81.375000 
z"/>
<path fill="#F07D53" opacity="1.000000" stroke="none" 
	d="
M199.790863,97.687225 
	C199.302536,100.496185 198.814392,102.893654 197.805267,105.580536 
	C195.919037,104.956467 194.550720,103.253227 193.189056,103.258537 
	C184.776733,103.291336 176.367065,103.750366 167.954117,103.980179 
	C164.027161,104.087456 160.094864,103.998520 156.036224,103.998520 
	C154.292984,105.147179 152.137161,106.567688 149.931244,107.582413 
	C149.586380,103.790108 149.291595,100.403603 149.003967,96.628540 
	C150.657028,89.834496 151.522141,89.395218 157.183640,91.560905 
	C159.024796,90.742538 160.466766,89.525620 161.867523,89.571297 
	C171.879852,89.897934 181.879959,90.619125 191.892776,90.898544 
	C194.822754,90.980316 196.916000,88.617676 195.676392,85.887886 
	C193.187790,80.407578 189.940857,75.271614 187.001724,69.747101 
	C186.996536,69.500671 186.982559,69.007896 186.847198,68.711319 
	C185.472824,66.947243 184.233795,65.479744 182.715210,63.874683 
	C181.631699,62.821579 180.827759,61.906036 179.874084,60.692959 
	C176.485672,57.256935 173.246994,54.118443 169.859436,50.679470 
	C167.151688,47.910664 164.592850,45.442345 161.885559,42.686539 
	C161.143005,41.291271 160.548889,40.183491 160.333817,39.048325 
	C161.216217,38.960934 161.719604,38.900928 162.222977,38.840923 
	C162.773361,39.317791 163.323746,39.794662 164.067871,40.779747 
	C164.584229,41.425503 164.906830,41.563042 165.229446,41.700581 
	C165.229446,41.700581 165.189331,41.922234 165.268951,42.128685 
	C165.891663,42.563828 166.434769,42.792522 166.977875,43.021217 
	C166.977875,43.021217 167.000610,43.000458 167.012085,43.351807 
	C168.594818,45.181648 170.166061,46.660133 171.737305,48.138626 
	C171.737305,48.138626 171.832870,48.169285 171.910965,48.503868 
	C172.593597,49.259804 173.198120,49.681160 173.802658,50.102512 
	C184.412384,60.723087 193.605484,72.279900 197.726074,87.075333 
	C198.654404,90.408623 199.115067,93.872162 199.790863,97.687225 
z"/>
<path fill="#F2B181" opacity="1.000000" stroke="none" 
	d="
M171.722794,47.796627 
	C170.166061,46.660133 168.594818,45.181648 167.001740,43.363979 
	C168.556046,44.501411 170.132156,45.978024 171.722794,47.796627 
z"/>
<path fill="#F2B181" opacity="1.000000" stroke="none" 
	d="
M156.086166,36.883781 
	C156.027725,36.233013 155.969269,35.582241 155.882721,34.606476 
	C157.159836,34.958260 158.465042,35.635040 159.853958,36.687645 
	C159.937668,37.063477 159.745743,37.259758 159.387909,37.178841 
	C158.044113,37.039898 157.058151,36.981876 156.065857,36.917294 
	C156.059494,36.910736 156.086166,36.883781 156.086166,36.883781 
z"/>
<path fill="#F2B181" opacity="1.000000" stroke="none" 
	d="
M162.134399,38.547596 
	C161.719604,38.900928 161.216217,38.960934 160.336349,39.029789 
	C159.959854,39.038639 159.931137,39.038532 159.945190,38.737228 
	C159.888062,38.043873 159.816910,37.651814 159.745743,37.259758 
	C159.745743,37.259758 159.937668,37.063477 160.033875,36.964867 
	C160.768677,37.328930 161.407242,37.791599 162.134399,38.547596 
z"/>
<path fill="#F2B181" opacity="1.000000" stroke="none" 
	d="
M173.786194,49.787216 
	C173.198120,49.681160 172.593597,49.259804 171.924957,48.552063 
	C172.497147,48.667759 173.133438,49.069843 173.786194,49.787216 
z"/>
<path fill="#F2B181" opacity="1.000000" stroke="none" 
	d="
M166.880127,42.747089 
	C166.434769,42.792522 165.891663,42.563828 165.311813,42.024536 
	C165.777512,41.966946 166.279953,42.219955 166.880127,42.747089 
z"/>
<path fill="#F2B181" opacity="1.000000" stroke="none" 
	d="
M165.133545,41.466751 
	C164.906830,41.563042 164.584229,41.425503 164.220398,41.008308 
	C164.465332,40.896748 164.751480,41.064838 165.133545,41.466751 
z"/>
<path fill="#D35E68" opacity="1.000000" stroke="none" 
	d="
M107.334000,193.964722 
	C106.636597,193.453278 106.325462,192.931427 106.279739,191.917084 
	C108.144226,190.632935 109.740028,189.834564 111.342934,189.050720 
	C120.900551,184.376892 130.459793,179.706406 140.369354,174.993088 
	C145.479431,171.630020 150.238663,168.308670 155.333893,164.968811 
	C157.124313,163.648468 158.578735,162.346634 160.025848,161.023926 
	C160.018524,161.003052 160.045410,161.045288 160.386429,161.003387 
	C164.483994,157.629700 168.240540,154.297913 172.266510,150.857422 
	C173.023956,150.164551 173.511978,149.580414 174.296387,148.855789 
	C175.418106,147.491257 176.243423,146.267212 177.327728,144.917023 
	C178.065582,144.208054 178.544434,143.625229 179.239807,142.925949 
	C179.724884,142.600540 179.904984,142.332199 180.218842,141.896332 
	C180.719162,141.587387 180.907349,141.322678 181.293640,140.855423 
	C182.061035,139.817810 182.540451,138.918839 183.011719,138.011597 
	C183.003555,138.003311 183.014908,138.014297 183.234970,137.908203 
	C183.727066,137.599274 183.907745,137.334152 183.998657,137.003998 
	C184.000259,137.001221 184.006577,136.998779 184.280273,136.813400 
	C186.018066,135.044830 187.482162,133.461639 188.999283,132.275452 
	C189.096146,132.935837 189.139999,133.199234 189.183868,133.462631 
	C180.378098,148.733932 167.602386,160.200623 153.570816,170.416565 
	C139.523972,180.643616 124.318069,188.668716 107.334000,193.964722 
z"/>
<path fill="#D36B66" opacity="1.000000" stroke="none" 
	d="
M189.467819,133.243088 
	C189.139999,133.199234 189.096146,132.935837 189.011658,131.876617 
	C188.993134,129.738876 189.015259,128.396942 189.392548,127.004913 
	C191.185440,124.487617 192.638855,122.029411 194.056213,119.550575 
	C195.308182,117.360954 196.519913,115.148323 197.749420,112.945847 
	C197.749420,112.945847 197.917725,113.021690 198.009827,113.028252 
	C196.423492,120.159317 194.307693,127.101097 189.467819,133.243088 
z"/>
<path fill="#D56368" opacity="1.000000" stroke="none" 
	d="
M48.974495,192.987839 
	C48.027245,193.376053 47.079998,193.764252 46.067047,194.476059 
	C35.014305,190.574478 27.110741,182.731873 20.708775,172.719727 
	C20.764420,172.246521 21.091095,171.909775 21.404987,171.937881 
	C22.140823,171.984314 22.562767,172.002640 23.129488,172.322266 
	C29.935898,181.569550 37.999680,188.670761 48.902740,192.305176 
	C48.934772,192.531815 48.974495,192.987839 48.974495,192.987839 
z"/>
<path fill="#D56368" opacity="1.000000" stroke="none" 
	d="
M19.150421,170.960770 
	C19.229828,170.192627 19.389885,169.712952 20.031044,169.307465 
	C20.705126,170.224365 20.898111,171.067078 21.091095,171.909775 
	C21.091095,171.909775 20.764420,172.246521 20.586559,172.403198 
	C20.016155,172.122986 19.623613,171.686111 19.150421,170.960770 
z"/>
<path fill="#EA6550" opacity="1.000000" stroke="none" 
	d="
M186.982559,69.007896 
	C186.982559,69.007896 186.996536,69.500671 186.987671,70.139877 
	C185.947876,71.453568 184.968689,72.588783 183.875809,72.711510 
	C181.173233,73.014999 178.409225,73.012199 175.686707,72.850151 
	C168.813660,72.441093 161.646469,75.050446 155.126846,70.894814 
	C152.536163,69.243507 149.933075,67.864059 146.979080,70.282883 
	C146.639862,70.560616 145.646149,70.448509 145.219055,70.145844 
	C141.113480,67.236359 138.916107,69.693375 136.554413,72.983551 
	C134.258774,72.992508 132.383713,72.992508 129.556152,72.992508 
	C131.215378,70.728432 132.107407,69.511215 132.999451,68.293991 
	C125.589035,69.014336 118.379906,73.004852 111.545219,67.388412 
	C108.381744,70.972855 104.759804,72.110748 100.093124,71.628258 
	C98.790039,71.493546 97.367668,72.512650 95.588120,73.054459 
	C86.101334,75.528877 77.999664,72.799484 69.376770,68.784782 
	C68.835709,69.075035 67.547279,70.218910 66.111061,70.451973 
	C61.771690,71.156136 57.374939,71.506683 52.992104,71.626678 
	C52.369656,70.588974 51.755661,69.919662 51.141663,69.250343 
	C50.760597,70.165062 50.379536,71.079781 49.739964,72.103104 
	C48.987610,72.474678 48.493767,72.737671 47.999924,73.000664 
	C43.778774,67.939468 41.300495,73.776390 37.523251,74.726105 
	C37.992607,72.902832 38.406136,71.296417 38.906269,69.353569 
	C31.258356,72.627937 23.879822,73.601639 16.213715,72.238708 
	C15.578414,72.125763 14.673100,71.913582 14.295406,72.229027 
	C11.595692,74.483810 9.739021,74.338463 8.477040,70.744034 
	C8.300587,70.241455 6.727169,70.229347 5.406624,69.571442 
	C4.963252,68.331940 4.913664,67.511208 4.864077,66.690468 
	C4.973637,65.663269 5.083198,64.636070 5.492006,63.110313 
	C5.928990,62.372334 5.979859,62.115643 5.943860,61.841694 
	C6.078106,61.013542 6.212352,60.185390 7.006498,59.207031 
	C10.115867,59.371220 12.565016,59.956936 15.014852,59.959824 
	C61.292198,60.014366 107.569618,59.996998 153.847031,60.011158 
	C155.669968,60.011715 157.492188,60.194599 159.315887,60.260746 
	C166.218262,60.511101 173.121124,60.748344 180.023804,60.990494 
	C180.827759,61.906036 181.631699,62.821579 182.717850,64.264847 
	C182.784592,67.655426 183.951508,69.212257 186.982559,69.007896 
z"/>
<path fill="#E9614F" opacity="1.000000" stroke="none" 
	d="
M179.874084,60.692959 
	C173.121124,60.748344 166.218262,60.511101 159.315887,60.260746 
	C157.492188,60.194599 155.669968,60.011715 153.847031,60.011158 
	C107.569618,59.996998 61.292198,60.014366 15.014852,59.959824 
	C12.565016,59.956936 10.115867,59.371220 7.237267,58.987701 
	C7.139485,57.494305 7.470833,56.070030 8.243582,54.167839 
	C9.141746,52.791580 9.598508,51.893250 10.360779,51.159294 
	C12.491248,51.428112 14.316210,51.532551 16.141171,51.636993 
	C19.077423,51.252251 21.812649,51.913227 24.555943,51.948605 
	C34.612621,52.078308 44.674091,51.870667 54.729778,52.034424 
	C65.998352,52.217926 77.261230,52.841694 88.529305,52.931187 
	C94.803215,52.981014 101.082359,52.080551 107.359695,52.073093 
	C113.303642,52.066029 119.248322,52.925858 125.192673,52.925858 
	C131.137024,52.925858 137.077911,52.225906 143.026810,52.033028 
	C148.010773,51.871441 153.012024,51.831093 157.990021,52.066643 
	C160.574188,52.188919 163.124573,53.025051 165.690216,53.538700 
	C165.856766,54.170151 166.023331,54.801601 166.189880,55.433052 
	C167.462692,53.948685 168.735504,52.464317 170.008316,50.979950 
	C173.246994,54.118443 176.485672,57.256935 179.874084,60.692959 
z"/>
<path fill="#E75D50" opacity="1.000000" stroke="none" 
	d="
M169.859436,50.679466 
	C168.735504,52.464317 167.462692,53.948685 166.189880,55.433052 
	C166.023331,54.801601 165.856766,54.170151 165.690216,53.538700 
	C163.124573,53.025051 160.574188,52.188919 157.990021,52.066643 
	C153.012024,51.831093 148.010773,51.871441 143.026810,52.033028 
	C137.077911,52.225906 131.137024,52.925858 125.192673,52.925858 
	C119.248322,52.925858 113.303642,52.066029 107.359695,52.073093 
	C101.082359,52.080551 94.803215,52.981014 88.529305,52.931187 
	C77.261230,52.841694 65.998352,52.217926 54.729778,52.034424 
	C44.674091,51.870667 34.612621,52.078308 24.555943,51.948605 
	C21.812649,51.913227 19.077423,51.252251 16.141171,51.636993 
	C14.316210,51.532551 12.491248,51.428112 10.493943,50.808155 
	C10.441707,49.318024 10.561814,48.343410 10.681921,47.368793 
	C10.780889,46.767635 10.879855,46.166477 11.147299,45.306793 
	C12.038334,44.469009 12.760892,43.889744 14.050972,43.317123 
	C16.246914,44.190067 17.874704,45.791992 19.503866,45.793385 
	C26.023561,45.798958 32.543041,45.058411 39.063747,45.041702 
	C73.650452,44.953072 108.237511,44.997932 142.824448,45.008114 
	C144.148041,45.008503 145.867279,44.611561 146.731537,45.274296 
	C152.731674,49.875362 157.089081,44.638813 162.033997,42.974026 
	C164.592850,45.442345 167.151688,47.910664 169.859436,50.679466 
z"/>
<path fill="#F07D53" opacity="1.000000" stroke="none" 
	d="
M10.378292,47.572250 
	C10.561814,48.343410 10.441707,49.318024 10.188435,50.643780 
	C9.598508,51.893250 9.141746,52.791580 8.411667,53.839195 
	C8.783790,51.917553 9.429226,49.846630 10.378292,47.572250 
z"/>
<path fill="#F07D53" opacity="1.000000" stroke="none" 
	d="
M4.545145,66.833580 
	C4.913664,67.511208 4.963252,68.331940 5.017046,69.561523 
	C4.628242,69.983345 4.235230,69.996330 3.547633,70.006546 
	C3.577435,68.994736 3.901824,67.985718 4.545145,66.833580 
z"/>
<path fill="#F07D53" opacity="1.000000" stroke="none" 
	d="
M5.769559,61.970509 
	C5.979859,62.115643 5.928990,62.372334 5.663651,62.761059 
	C5.365842,62.626225 5.385579,62.355881 5.769559,61.970509 
z"/>
<path fill="#E25051" opacity="1.000000" stroke="none" 
	d="
M26.986685,23.979025 
	C34.225258,13.271262 44.839359,8.088926 57.144135,6.045489 
	C79.401520,2.349237 100.217285,7.355196 120.173668,17.062593 
	C124.204857,19.023491 128.243332,20.969408 132.585175,23.309929 
	C131.255249,24.699104 129.289490,26.855101 128.039932,26.498871 
	C123.071182,25.082354 118.531799,25.979429 113.570671,26.696009 
	C106.152542,27.767475 98.467430,26.995373 90.895889,26.998758 
	C80.492912,27.003410 70.087837,27.130049 59.687565,26.962168 
	C49.904972,26.804258 40.124374,26.394625 30.351824,25.914177 
	C29.201180,25.857607 28.107027,24.651983 26.986685,23.979025 
z"/>
<path fill="#E55751" opacity="1.000000" stroke="none" 
	d="
M26.693815,24.127113 
	C28.107027,24.651983 29.201180,25.857607 30.351824,25.914177 
	C40.124374,26.394625 49.904972,26.804258 59.687565,26.962168 
	C70.087837,27.130049 80.492912,27.003410 90.895889,26.998758 
	C98.467430,26.995373 106.152542,27.767475 113.570671,26.696009 
	C118.531799,25.979429 123.071182,25.082354 128.039932,26.498871 
	C129.289490,26.855101 131.255249,24.699104 132.944992,23.351292 
	C139.568237,27.457291 146.138382,31.909628 152.807983,37.006577 
	C151.271637,38.767406 149.635818,39.883629 147.941345,40.640587 
	C145.422012,39.187939 143.015289,37.936287 140.476898,37.070766 
	C139.283966,36.664017 137.837631,36.992954 136.506195,37.001080 
	C100.420517,37.221378 64.334755,37.536892 28.249311,37.504360 
	C25.028355,37.501461 20.916189,36.543922 19.982445,31.997410 
	C19.993944,31.828981 20.005442,31.660555 20.245119,31.129128 
	C20.730385,30.565151 20.903440,30.307671 20.992462,29.993683 
	C22.795290,28.087524 24.598118,26.181364 26.693815,24.127113 
z"/>
<path fill="#E65B51" opacity="1.000000" stroke="none" 
	d="
M19.679134,32.155895 
	C20.916189,36.543922 25.028355,37.501461 28.249311,37.504360 
	C64.334755,37.536892 100.420517,37.221378 136.506195,37.001080 
	C137.837631,36.992954 139.283966,36.664017 140.476898,37.070766 
	C143.015289,37.936287 145.422012,39.187939 147.949265,41.009987 
	C148.539948,45.499176 150.749954,43.651608 152.226242,42.792595 
	C153.977448,41.773598 155.447922,40.272190 157.401642,38.988724 
	C158.485840,39.011242 159.208496,39.024887 159.931137,39.038528 
	C159.931137,39.038532 159.959854,39.038639 159.957321,39.057175 
	C160.548889,40.183491 161.143005,41.291271 161.885559,42.686539 
	C157.089081,44.638813 152.731674,49.875362 146.731537,45.274296 
	C145.867279,44.611561 144.148041,45.008503 142.824448,45.008114 
	C108.237511,44.997932 73.650452,44.953072 39.063747,45.041702 
	C32.543041,45.058411 26.023561,45.798958 19.503866,45.793385 
	C17.874704,45.791992 16.246914,44.190067 14.293623,43.152519 
	C15.771110,39.425644 17.573465,35.870014 19.679134,32.155895 
z"/>
<path fill="#E65C4B" opacity="1.000000" stroke="none" 
	d="
M157.040070,38.979851 
	C155.447922,40.272190 153.977448,41.773598 152.226242,42.792595 
	C150.749954,43.651608 148.539948,45.499176 148.007904,41.369247 
	C149.635818,39.883629 151.271637,38.767406 152.968445,37.304649 
	C153.793365,36.957317 154.557297,36.956520 155.703690,36.919754 
	C156.086166,36.883781 156.059494,36.910736 156.142181,37.193245 
	C156.496613,37.977119 156.768341,38.478485 157.040070,38.979851 
z"/>
<path fill="#E65B51" opacity="1.000000" stroke="none" 
	d="
M20.780519,30.100748 
	C20.903440,30.307671 20.730385,30.565151 20.266331,30.876789 
	C20.131493,30.663815 20.301228,30.403936 20.780519,30.100748 
z"/>
<path fill="#FDF7F3" opacity="1.000000" stroke="none" 
	d="
M38.939857,113.003319 
	C38.013477,106.960579 37.087101,100.917839 36.022247,94.438583 
	C35.947803,93.296776 36.011837,92.591492 36.074356,91.532715 
	C37.660961,88.099243 39.249073,85.019257 41.308319,81.521118 
	C43.042919,80.031731 44.311279,78.966202 45.569061,77.888321 
	C53.864048,70.779800 67.763565,69.733116 76.460815,76.077118 
	C79.734001,78.464661 82.174225,81.994164 85.020584,85.268806 
	C85.299393,85.761864 85.551781,85.989174 85.770203,86.191986 
	C85.736244,86.167488 85.711342,86.247452 85.726822,86.600204 
	C86.216423,88.291557 86.690544,89.630157 87.158890,91.310753 
	C87.297096,92.081017 87.441078,92.509285 87.563614,93.333740 
	C88.666992,103.149185 88.614685,103.199120 79.189407,103.189529 
	C70.231346,103.180412 61.273182,103.175003 52.315292,103.216522 
	C50.942448,103.222878 49.570820,103.490799 47.318005,103.732048 
	C48.796150,106.512703 49.553719,108.746773 50.960331,110.442429 
	C56.727169,117.394188 66.000038,117.543907 73.678391,112.115036 
	C76.317619,110.248993 80.684738,110.826759 84.262489,110.288109 
	C83.364090,112.830399 82.479851,115.377838 81.557007,117.911224 
	C81.335571,118.519089 80.985870,119.080223 80.707085,119.714020 
	C80.719009,119.765182 80.787292,119.685318 80.483810,119.693527 
	C79.748482,120.103073 79.316635,120.504402 78.940323,120.916458 
	C78.995872,120.927193 78.905487,120.859146 78.607712,120.889984 
	C77.881760,121.307640 77.453575,121.694450 76.658142,122.126602 
	C66.871872,126.986794 57.502617,125.845123 47.978809,121.679634 
	C47.226822,121.219543 46.652504,121.016678 46.064507,120.864464 
	C46.050823,120.915123 46.155758,120.914398 46.097466,120.625839 
	C45.720486,120.119644 45.401791,119.902016 44.980267,119.435600 
	C44.324944,118.756538 43.772453,118.326263 43.135567,117.669792 
	C42.862091,117.157928 42.598854,116.985428 42.141357,116.672729 
	C41.692574,116.254288 41.363892,116.089218 41.022293,115.958412 
	C41.009377,115.992676 41.075363,115.960915 40.996361,115.704437 
	C40.630440,115.258171 40.343529,115.068375 40.048573,114.918213 
	C40.040527,114.957855 40.120987,114.949455 40.046707,114.671173 
	C39.676056,114.155960 39.379688,113.919022 39.098679,113.501556 
	C39.114033,113.321045 38.939857,113.003319 38.939857,113.003319 
M66.443001,94.211044 
	C69.710838,94.211044 72.978683,94.211044 76.317955,94.211044 
	C75.185448,86.206429 69.676666,81.701111 62.086510,82.031181 
	C54.519695,82.360237 49.098576,87.052170 48.556171,94.217804 
	C54.211338,94.217804 59.835793,94.217804 66.443001,94.211044 
z"/>
<path fill="#EA6C51" opacity="1.000000" stroke="none" 
	d="
M87.585052,92.937553 
	C87.441078,92.509285 87.297096,92.081017 87.399963,91.046036 
	C87.001656,89.042030 86.356499,87.644737 85.711342,86.247452 
	C85.711342,86.247452 85.736244,86.167488 85.748161,85.927216 
	C85.504776,85.458984 85.249474,85.231026 84.994179,85.003059 
	C82.174225,81.994164 79.734001,78.464661 76.460815,76.077118 
	C67.763565,69.733116 53.864048,70.779800 45.569061,77.888321 
	C44.311279,78.966202 43.042919,80.031731 41.447395,81.208488 
	C40.571640,76.459740 45.421814,76.114822 47.805199,73.272751 
	C48.493767,72.737671 48.987610,72.474678 50.115250,72.105110 
	C51.499550,71.997375 52.250050,71.996216 53.000553,71.995064 
	C57.374939,71.506683 61.771690,71.156136 66.111061,70.451973 
	C67.547279,70.218910 68.835709,69.075035 69.376770,68.784782 
	C77.999664,72.799484 86.101334,75.528877 95.650711,73.417847 
	C97.307442,75.944313 98.489685,78.159416 99.581406,80.364616 
	C99.490883,80.354706 99.360504,80.234634 99.033333,80.300301 
	C98.525047,80.966133 98.343941,81.566307 98.183052,82.117455 
	C98.203270,82.068436 98.226196,82.171974 97.852005,82.161652 
	C97.020996,83.145958 96.564171,84.140587 96.088562,85.095352 
	C96.069786,85.055481 96.157158,85.043823 95.851799,85.234268 
	C95.410599,86.116165 95.274750,86.807602 95.176575,87.835075 
	C94.805382,89.445824 94.396530,90.720543 93.732422,92.195908 
	C91.929070,97.107002 89.566910,92.951309 87.585052,92.937553 
z"/>
<path fill="#F17D4D" opacity="1.000000" stroke="none" 
	d="
M38.609558,112.947594 
	C38.939857,113.003319 39.114033,113.321045 39.170784,113.785141 
	C39.525352,114.482643 39.823170,114.716049 40.120987,114.949455 
	C40.120987,114.949455 40.040527,114.957855 40.139000,115.164490 
	C40.516769,115.567719 40.796070,115.764313 41.075363,115.960907 
	C41.075363,115.960915 41.009377,115.992676 41.147266,116.209122 
	C41.610592,116.592407 41.936028,116.759247 42.261467,116.926086 
	C42.598854,116.985428 42.862091,117.157928 42.801125,117.813599 
	C39.407516,118.761551 38.633812,122.509979 34.075790,122.437309 
	C24.069807,122.277779 14.033998,119.596542 4.005833,121.999695 
	C3.669588,119.607643 3.333343,117.215591 3.002964,114.411415 
	C12.181423,107.788536 22.345898,111.719467 32.065033,111.320084 
	C34.019329,111.239784 37.006248,109.408165 38.609558,112.947594 
z"/>
<path fill="#FB9748" opacity="1.000000" stroke="none" 
	d="
M48.870705,192.078552 
	C37.999680,188.670761 29.935898,181.569550 23.140295,171.953186 
	C23.292454,168.844864 23.913870,167.426117 26.806650,169.127670 
	C28.669668,170.223511 30.922417,171.121277 33.036533,171.205734 
	C35.563030,171.306671 38.126717,170.066666 40.676483,170.058090 
	C68.307610,169.965118 95.939224,170.025421 123.570442,169.948639 
	C125.636948,169.942902 127.698250,168.901093 129.767563,168.879608 
	C132.992706,168.846115 136.292007,168.991425 139.390808,169.750854 
	C139.995377,169.899017 139.829178,173.192215 140.018494,175.034790 
	C130.459793,179.706406 120.900551,184.376892 111.342934,189.050720 
	C109.740028,189.834564 108.144226,190.632935 106.259369,191.598999 
	C105.793091,191.765701 105.612572,191.758011 104.931427,191.522705 
	C103.285164,191.544815 102.139519,191.794540 100.993874,192.044250 
	C100.586525,192.069717 100.179184,192.095200 99.028687,192.080048 
	C95.187042,193.014343 92.088531,193.989243 88.990028,194.964142 
	C88.554657,194.989975 88.119286,195.015808 87.098633,194.753113 
	C81.852142,194.644684 77.186111,194.748383 72.532120,195.042526 
	C70.672127,195.160080 68.838692,195.697601 66.993164,196.043976 
	C66.547249,196.038361 66.101326,196.032761 65.156258,195.690613 
	C62.766079,195.246490 60.875057,195.138885 58.984032,195.031281 
	C57.886036,194.738358 56.788040,194.445435 55.177528,193.764999 
	C52.733578,192.944519 50.802139,192.511536 48.870705,192.078552 
z"/>
<path fill="#FB8F59" opacity="1.000000" stroke="none" 
	d="
M67.295868,196.314667 
	C68.838692,195.697601 70.672127,195.160080 72.532120,195.042526 
	C77.186111,194.748383 81.852142,194.644684 86.771500,194.756851 
	C80.552620,195.561188 74.075592,196.073273 67.295868,196.314667 
z"/>
<path fill="#FB8F59" opacity="1.000000" stroke="none" 
	d="
M89.393814,194.977875 
	C92.088531,193.989243 95.187042,193.014343 98.722534,192.078339 
	C96.038879,193.075378 92.918243,194.033508 89.393814,194.977875 
z"/>
<path fill="#FB8F59" opacity="1.000000" stroke="none" 
	d="
M59.258743,195.299057 
	C60.875057,195.138885 62.766079,195.246490 64.822357,195.670837 
	C63.169552,195.847336 61.351505,195.707077 59.258743,195.299057 
z"/>
<path fill="#FB8F59" opacity="1.000000" stroke="none" 
	d="
M48.902740,192.305176 
	C50.802139,192.511536 52.733578,192.944519 54.838524,193.714508 
	C53.254032,193.729828 51.496029,193.408142 49.356258,193.037140 
	C48.974495,192.987839 48.934772,192.531815 48.902740,192.305176 
z"/>
<path fill="#FB8F59" opacity="1.000000" stroke="none" 
	d="
M101.388535,192.038483 
	C102.139519,191.794540 103.285164,191.544815 104.661331,191.500275 
	C103.855644,191.814560 102.819420,191.923630 101.388535,192.038483 
z"/>
<path fill="#F99049" opacity="1.000000" stroke="none" 
	d="
M140.369354,174.993073 
	C139.829178,173.192215 139.995377,169.899017 139.390808,169.750854 
	C136.292007,168.991425 132.992706,168.846115 129.767563,168.879608 
	C127.698250,168.901093 125.636948,169.942902 123.570442,169.948639 
	C95.939224,170.025421 68.307610,169.965118 40.676483,170.058090 
	C38.126717,170.066666 35.563030,171.306671 33.036533,171.205734 
	C30.922417,171.121277 28.669668,170.223511 26.806650,169.127670 
	C23.913870,167.426117 23.292454,168.844864 22.995518,171.651886 
	C22.562767,172.002640 22.140823,171.984314 21.404987,171.937881 
	C20.898111,171.067078 20.705126,170.224365 20.255272,169.173172 
	C18.330362,165.561401 16.662321,162.158112 15.240910,158.096436 
	C18.066977,156.958694 20.646194,156.071198 23.225887,156.069809 
	C35.170315,156.063370 47.114685,156.320297 59.059425,156.450562 
	C77.971657,156.656815 96.884705,156.799484 115.796043,157.066193 
	C118.918465,157.110214 122.051369,158.031937 125.149361,157.890289 
	C135.377609,157.422684 145.595047,156.695938 155.810318,155.978561 
	C159.719833,155.704025 161.643356,156.838486 160.045410,161.045288 
	C160.045410,161.045288 160.018524,161.003052 159.645142,161.013443 
	C157.847137,162.345001 156.422516,163.666168 154.997894,164.987320 
	C150.238663,168.308670 145.479431,171.630020 140.369354,174.993073 
z"/>
<path fill="#F78B4A" opacity="1.000000" stroke="none" 
	d="
M160.386429,161.003387 
	C161.643356,156.838486 159.719833,155.704025 155.810318,155.978561 
	C145.595047,156.695938 135.377609,157.422684 125.149361,157.890289 
	C122.051369,158.031937 118.918465,157.110214 115.796043,157.066193 
	C96.884705,156.799484 77.971657,156.656815 59.059425,156.450562 
	C47.114685,156.320297 35.170315,156.063370 23.225887,156.069809 
	C20.646194,156.071198 18.066977,156.958694 15.230099,157.726227 
	C13.672500,155.589828 12.372339,153.165253 11.033910,150.126373 
	C10.995405,149.341980 10.995171,149.171906 10.997162,148.625870 
	C11.664860,147.165131 12.330333,146.080368 13.419086,144.998230 
	C21.864788,145.334229 29.885925,145.703156 37.909946,145.991959 
	C48.183155,146.361725 58.456982,146.760666 68.734169,146.947464 
	C72.175087,147.009995 75.622971,146.373871 79.074905,146.207108 
	C88.382492,145.757462 97.693985,145.388580 107.414505,144.990936 
	C111.345802,145.875137 114.830826,146.974106 118.400101,147.558426 
	C120.687027,147.932831 123.693779,149.662292 125.300934,145.664261 
	C126.559441,145.599594 127.486092,145.653671 128.806519,145.799591 
	C129.467056,145.930069 129.733841,145.968704 130.038666,146.355713 
	C131.331436,147.157578 132.561493,147.872101 133.847549,147.993591 
	C135.228683,148.124069 136.659210,147.572144 138.073792,147.535812 
	C143.977768,147.384155 149.883728,147.249039 155.789230,147.236206 
	C160.168167,147.226685 164.572906,147.186966 168.909546,147.669540 
	C170.046906,147.796097 170.973618,149.815826 171.997070,150.966125 
	C168.240540,154.297913 164.483994,157.629700 160.386429,161.003387 
z"/>
<path fill="#F5864A" opacity="1.000000" stroke="none" 
	d="
M107.003922,144.987656 
	C97.693985,145.388580 88.382492,145.757462 79.074905,146.207108 
	C75.622971,146.373871 72.175087,147.009995 68.734169,146.947464 
	C58.456982,146.760666 48.183155,146.361725 37.909946,145.991959 
	C29.885925,145.703156 21.864788,145.334229 13.413946,144.619873 
	C10.997922,142.157822 9.010322,140.076782 7.022720,137.995728 
	C7.022720,137.995728 6.998848,137.508011 6.997736,136.845673 
	C7.069023,134.610916 7.141423,133.038513 7.169683,132.424759 
	C11.733496,131.502533 15.424355,130.315521 19.171070,130.100143 
	C25.211529,129.752869 31.291786,129.938187 37.349503,130.105698 
	C41.545517,130.221725 45.772831,131.204514 49.913319,130.877579 
	C56.703575,130.341431 64.252045,133.746796 68.865929,128.443192 
	C72.813522,129.462830 75.733299,130.802673 78.674904,130.852432 
	C84.439972,130.949966 90.217201,130.328613 95.997620,130.369354 
	C96.980766,132.159851 97.955688,133.585754 99.118073,135.187317 
	C99.591560,135.783859 99.877586,136.204742 100.117157,137.022522 
	C102.082069,138.915863 104.093437,140.412292 106.048431,141.922974 
	C105.992050,141.937210 106.089737,141.874039 106.078331,142.205933 
	C106.379257,143.354431 106.691589,144.171036 107.003922,144.987656 
M97.439148,141.706024 
	C97.708656,141.988510 97.978157,142.270981 98.247658,142.553467 
	C98.364655,142.441742 98.481651,142.330017 98.598656,142.218307 
	C98.328842,141.935837 98.059029,141.653381 97.439148,141.706024 
z"/>
<path fill="#F2814E" opacity="1.000000" stroke="none" 
	d="
M95.989403,130.004776 
	C90.217201,130.328613 84.439972,130.949966 78.674904,130.852432 
	C75.733299,130.802673 72.813522,129.462830 68.865929,128.443192 
	C64.252045,133.746796 56.703575,130.341431 49.913319,130.877579 
	C45.772831,131.204514 41.545517,130.221725 37.349503,130.105698 
	C31.291786,129.938187 25.211529,129.752869 19.171070,130.100143 
	C15.424355,130.315521 11.733496,131.502533 7.169683,132.424759 
	C7.141423,133.038513 7.069023,134.610916 6.991085,136.601608 
	C5.988621,132.305252 4.991695,127.590614 4.000301,122.437836 
	C14.033998,119.596542 24.069807,122.277779 34.075790,122.437309 
	C38.633812,122.509979 39.407516,118.761551 42.885521,118.039810 
	C43.772453,118.326263 44.324944,118.756538 45.055321,119.719589 
	C45.540722,120.473045 45.848240,120.693718 46.155758,120.914398 
	C46.155758,120.914398 46.050823,120.915123 46.203537,121.158279 
	C46.956322,121.579918 47.556400,121.758392 48.156479,121.936859 
	C57.502617,125.845123 66.871872,126.986794 76.843033,122.346031 
	C77.898621,121.966476 78.402054,121.412811 78.905487,120.859146 
	C78.905487,120.859146 78.995872,120.927193 79.267860,120.926804 
	C79.955666,120.512726 80.371483,120.099022 80.787292,119.685318 
	C80.787292,119.685318 80.719009,119.765182 81.080826,119.802284 
	C83.293396,117.767265 85.889565,115.975784 86.802582,113.550629 
	C87.896080,110.646080 89.116257,109.742516 91.802803,110.835815 
	C93.969322,111.717499 96.044136,112.824509 98.146988,113.842407 
	C98.134323,113.853264 98.115807,113.876808 98.080215,114.259193 
	C98.216934,117.788383 100.029732,119.062218 103.243317,119.056015 
	C103.771179,119.264809 103.964012,119.501549 104.171272,120.108093 
	C104.658249,120.553177 105.022865,120.716362 105.553848,120.869553 
	C105.720215,120.859550 105.997482,121.044571 106.123657,121.264893 
	C106.552666,121.618103 106.855492,121.750999 107.112579,121.865341 
	C107.066826,121.846794 107.157791,121.808388 107.125809,122.142319 
	C107.162689,123.111313 107.231552,123.746368 107.300247,124.379906 
	C103.886848,125.074326 99.664108,121.518456 97.122063,126.573013 
	C97.117729,126.738083 96.934013,127.012527 96.680458,127.222168 
	C96.281075,128.289459 96.135239,129.147125 95.989403,130.004776 
M75.263611,124.814735 
	C75.377724,124.972290 75.491837,125.129845 75.605942,125.287399 
	C75.582932,125.068100 75.559921,124.848808 75.263611,124.814735 
z"/>
<path fill="#F2814E" opacity="1.000000" stroke="none" 
	d="
M7.019425,138.389313 
	C9.010322,140.076782 10.997922,142.157822 12.990664,144.617233 
	C12.330333,146.080368 11.664860,147.165131 10.760814,148.626572 
	C10.522241,149.003235 10.049459,149.009552 10.049458,149.009552 
	C9.038348,145.600662 8.027239,142.191772 7.019425,138.389313 
z"/>
<path fill="#F5864A" opacity="1.000000" stroke="none" 
	d="
M10.138523,149.233063 
	C10.049459,149.009552 10.522241,149.003235 10.758589,149.002533 
	C10.995171,149.171906 10.995405,149.341980 10.991921,149.767395 
	C10.667349,149.924408 10.413811,149.735703 10.138523,149.233063 
z"/>
<path fill="#F17B4C" opacity="1.000000" stroke="none" 
	d="
M197.820419,112.627670 
	C196.519913,115.148323 195.308182,117.360954 194.056213,119.550575 
	C192.638855,122.029411 191.185440,124.487617 189.416718,126.630119 
	C189.059769,124.778000 189.033829,123.250565 189.007889,121.723122 
	C187.626984,121.836105 186.234833,121.875725 184.868652,122.084915 
	C183.744705,122.257011 182.645782,122.896942 181.545670,122.873093 
	C170.701920,122.638069 159.860214,122.307648 149.013412,121.542572 
	C149.333038,116.716644 149.657196,112.352425 149.981354,107.988197 
	C152.137161,106.567688 154.292984,105.147179 156.036224,103.998520 
	C160.094864,103.998520 164.027161,104.087456 167.954117,103.980179 
	C176.367065,103.750366 184.776733,103.291336 193.189056,103.258537 
	C194.550720,103.253227 195.919037,104.956467 197.647705,105.931694 
	C198.008774,106.439674 198.006454,106.885910 197.661011,107.716232 
	C197.521317,109.069305 197.724762,110.038307 197.928192,111.007309 
	C197.915939,111.441368 197.903671,111.875435 197.820419,112.627670 
z"/>
<path fill="#F07D53" opacity="1.000000" stroke="none" 
	d="
M197.956223,110.632126 
	C197.724762,110.038307 197.521317,109.069305 197.647522,108.050606 
	C197.979538,108.752914 197.981903,109.504929 197.956223,110.632126 
z"/>
<path fill="#EA6C51" opacity="1.000000" stroke="none" 
	d="
M136.975006,72.974602 
	C138.916107,69.693375 141.113480,67.236359 145.219055,70.145844 
	C145.646149,70.448509 146.639862,70.560616 146.979080,70.282883 
	C149.933075,67.864059 152.536163,69.243507 155.126846,70.894814 
	C161.646469,75.050446 168.813660,72.441093 175.686707,72.850151 
	C178.409225,73.012199 181.173233,73.014999 183.875809,72.711510 
	C184.968689,72.588783 185.947876,71.453568 186.992859,70.386307 
	C189.940857,75.271614 193.187790,80.407578 195.676392,85.887886 
	C196.916000,88.617676 194.822754,90.980316 191.892776,90.898544 
	C181.879959,90.619125 171.879852,89.897934 161.867523,89.571297 
	C160.466766,89.525620 159.024796,90.742538 157.183640,91.560905 
	C151.522141,89.395218 150.657028,89.834496 148.723892,96.321274 
	C148.259750,90.894463 148.082840,85.386360 147.840591,79.474312 
	C148.492905,74.100525 146.048752,72.499519 141.474258,73.131836 
	C140.171890,73.311852 138.859329,73.418060 137.407318,73.412247 
	C137.263199,73.266380 136.975006,72.974602 136.975006,72.974602 
z"/>
<path fill="#ED8C5D" opacity="1.000000" stroke="none" 
	d="
M147.905914,79.878265 
	C148.082840,85.386360 148.259750,90.894463 148.716736,96.709824 
	C149.291595,100.403603 149.586380,103.790108 149.931244,107.582413 
	C149.657196,112.352425 149.333038,116.716644 149.006531,121.995621 
	C148.661270,126.603096 148.318359,130.295822 147.705673,134.183197 
	C145.812317,135.409958 144.188751,136.442078 142.654724,137.145569 
	C147.868362,129.589310 147.713501,121.377426 147.573624,113.012909 
	C147.389023,101.972969 147.768768,90.923584 147.905914,79.878265 
z"/>
<path fill="#EA6C51" opacity="1.000000" stroke="none" 
	d="
M186.847198,68.711319 
	C183.951508,69.212257 182.784592,67.655426 182.997406,64.402405 
	C184.233795,65.479744 185.472824,66.947243 186.847198,68.711319 
z"/>
<path fill="#F07D53" opacity="1.000000" stroke="none" 
	d="
M157.401642,38.988724 
	C156.768341,38.478485 156.496613,37.977119 156.148544,37.199802 
	C157.058151,36.981876 158.044113,37.039898 159.387909,37.178841 
	C159.816910,37.651814 159.888062,38.043873 159.945190,38.737228 
	C159.208496,39.024887 158.485840,39.011242 157.401642,38.988724 
z"/>
<path fill="#F4814B" opacity="1.000000" stroke="none" 
	d="
M147.975464,133.988556 
	C148.318359,130.295822 148.661270,126.603096 149.011063,122.457321 
	C159.860214,122.307648 170.701920,122.638069 181.545670,122.873093 
	C182.645782,122.896942 183.744705,122.257011 184.868652,122.084915 
	C186.234833,121.875725 187.626984,121.836105 189.007889,121.723122 
	C189.033829,123.250565 189.059769,124.778000 189.061539,126.680237 
	C189.015259,128.396942 188.993134,129.738876 188.958649,131.479614 
	C187.482162,133.461639 186.018066,135.044830 184.268616,136.437271 
	C183.132019,135.629150 182.279999,134.486099 181.429642,134.487335 
	C178.119644,134.492142 174.708817,134.433792 171.524033,135.191483 
	C166.612076,136.360046 160.764008,131.130280 156.534714,137.433075 
	C156.190506,137.946045 153.784378,137.440384 152.555527,136.904999 
	C150.916412,136.190903 149.492065,134.983871 147.975464,133.988556 
z"/>
<path fill="#F68749" opacity="1.000000" stroke="none" 
	d="
M147.705673,134.183197 
	C149.492065,134.983871 150.916412,136.190903 152.555527,136.904999 
	C153.784378,137.440384 156.190506,137.946045 156.534714,137.433075 
	C160.764008,131.130280 166.612076,136.360046 171.524033,135.191483 
	C174.708817,134.433792 178.119644,134.492142 181.429642,134.487335 
	C182.279999,134.486099 183.132019,135.629150 183.994934,136.622650 
	C184.006577,136.998779 184.000259,137.001221 183.779297,137.110962 
	C183.284485,137.421753 183.103348,137.686279 183.014908,138.014297 
	C183.014908,138.014297 183.003555,138.003311 182.664948,138.056519 
	C181.886108,139.071167 181.445892,140.032623 181.005661,140.994064 
	C180.907349,141.322678 180.719162,141.587387 179.997787,142.007141 
	C179.278183,142.433594 179.101120,142.705704 179.023300,143.042404 
	C178.544434,143.625229 178.065582,144.208054 176.951202,144.902740 
	C172.373367,144.497971 173.582794,146.977493 174.000000,148.996277 
	C173.511978,149.580414 173.023956,150.164551 172.266510,150.857407 
	C170.973618,149.815826 170.046906,147.796097 168.909546,147.669540 
	C164.572906,147.186966 160.168167,147.226685 155.789230,147.236206 
	C149.883728,147.249039 143.977768,147.384155 138.073792,147.535812 
	C136.659210,147.572144 135.228683,148.124069 133.847549,147.993591 
	C132.561493,147.872101 131.331436,147.157578 130.415558,146.346893 
	C133.475159,144.258987 136.195969,142.528320 139.011185,140.593903 
	C139.291550,140.131027 139.542664,139.980835 140.241119,139.958359 
	C141.302109,139.214951 141.980896,138.452759 142.625015,137.641296 
	C142.590347,137.592041 142.565186,137.474213 142.565186,137.474213 
	C144.188751,136.442078 145.812317,135.409958 147.705673,134.183197 
z"/>
<path fill="#F78B4A" opacity="1.000000" stroke="none" 
	d="
M155.333893,164.968811 
	C156.422516,163.666168 157.847137,162.345001 159.652466,161.034332 
	C158.578735,162.346634 157.124313,163.648468 155.333893,164.968811 
z"/>
<path fill="#F4814B" opacity="1.000000" stroke="none" 
	d="
M174.296387,148.855789 
	C173.582794,146.977493 172.373367,144.497971 176.692200,145.028870 
	C176.243423,146.267212 175.418106,147.491257 174.296387,148.855789 
z"/>
<path fill="#F4814B" opacity="1.000000" stroke="none" 
	d="
M181.293640,140.855423 
	C181.445892,140.032623 181.886108,139.071167 182.673096,138.064789 
	C182.540451,138.918839 182.061035,139.817810 181.293640,140.855423 
z"/>
<path fill="#F4814B" opacity="1.000000" stroke="none" 
	d="
M183.234970,137.908203 
	C183.103348,137.686279 183.284485,137.421753 183.777695,137.113739 
	C183.907745,137.334152 183.727066,137.599274 183.234970,137.908203 
z"/>
<path fill="#F4814B" opacity="1.000000" stroke="none" 
	d="
M179.239807,142.925949 
	C179.101120,142.705704 179.278183,142.433594 179.775543,142.115280 
	C179.904984,142.332199 179.724884,142.600540 179.239807,142.925949 
z"/>
<path fill="#EA6C51" opacity="1.000000" stroke="none" 
	d="
M99.671936,80.374527 
	C98.489685,78.159416 97.307442,75.944313 96.062607,73.365822 
	C97.367668,72.512650 98.790039,71.493546 100.093124,71.628258 
	C104.759804,72.110748 108.381744,70.972855 111.545219,67.388412 
	C118.379906,73.004852 125.589035,69.014336 132.999451,68.293991 
	C132.107407,69.511215 131.215378,70.728432 129.556152,72.992508 
	C132.383713,72.992508 134.258774,72.992508 136.554413,72.983551 
	C136.975006,72.974602 137.263199,73.266380 137.264313,73.745865 
	C136.986313,75.883347 136.707214,77.541344 136.665237,77.790695 
	C131.131729,75.821175 125.951164,73.156532 120.475128,72.220490 
	C112.254410,70.815315 105.517708,74.849243 99.671936,80.374527 
z"/>
<path fill="#EA6B50" opacity="1.000000" stroke="none" 
	d="
M52.992104,71.626678 
	C52.250050,71.996216 51.499550,71.997375 50.373760,71.996521 
	C50.379536,71.079781 50.760597,70.165062 51.141663,69.250343 
	C51.755661,69.919662 52.369656,70.588974 52.992104,71.626678 
z"/>
<path fill="#EB825E" opacity="1.000000" stroke="none" 
	d="
M98.159645,113.831551 
	C96.044136,112.824509 93.969322,111.717499 91.802803,110.835815 
	C89.116257,109.742516 87.896080,110.646080 86.802582,113.550629 
	C85.889565,115.975784 83.293396,117.767265 81.068901,119.751114 
	C80.985870,119.080223 81.335571,118.519089 81.557007,117.911224 
	C82.479851,115.377838 83.364090,112.830399 84.262489,110.288109 
	C80.684738,110.826759 76.317619,110.248993 73.678391,112.115036 
	C66.000038,117.543907 56.727169,117.394188 50.960331,110.442429 
	C49.553719,108.746773 48.796150,106.512703 47.318005,103.732048 
	C49.570820,103.490799 50.942448,103.222878 52.315292,103.216522 
	C61.273182,103.175003 70.231346,103.180412 79.189407,103.189529 
	C88.614685,103.199120 88.666992,103.149185 87.563614,93.333740 
	C89.566910,92.951309 91.929070,97.107002 93.763504,92.659576 
	C92.855774,100.396217 94.560760,107.300011 98.159645,113.831551 
z"/>
<path fill="#E77657" opacity="1.000000" stroke="none" 
	d="
M65.951630,94.214424 
	C59.835793,94.217804 54.211338,94.217804 48.556171,94.217804 
	C49.098576,87.052170 54.519695,82.360237 62.086510,82.031181 
	C69.676666,81.701111 75.185448,86.206429 76.317955,94.211044 
	C72.978683,94.211044 69.710838,94.211044 65.951630,94.214424 
z"/>
<path fill="#EB825E" opacity="1.000000" stroke="none" 
	d="
M85.726822,86.600204 
	C86.356499,87.644737 87.001656,89.042030 87.405731,90.704033 
	C86.690544,89.630157 86.216423,88.291557 85.726822,86.600204 
z"/>
<path fill="#EB825E" opacity="1.000000" stroke="none" 
	d="
M78.607712,120.889984 
	C78.402054,121.412811 77.898621,121.966476 77.210281,122.300705 
	C77.453575,121.694450 77.881760,121.307640 78.607712,120.889984 
z"/>
<path fill="#F17D4D" opacity="1.000000" stroke="none" 
	d="
M47.978809,121.679642 
	C47.556400,121.758392 46.956322,121.579918 46.217216,121.107620 
	C46.652504,121.016678 47.226822,121.219543 47.978809,121.679642 
z"/>
<path fill="#EB825E" opacity="1.000000" stroke="none" 
	d="
M80.483810,119.693527 
	C80.371483,120.099022 79.955666,120.512726 79.212311,120.916077 
	C79.316635,120.504402 79.748482,120.103073 80.483810,119.693527 
z"/>
<path fill="#EF784F" opacity="1.000000" stroke="none" 
	d="
M40.046707,114.671173 
	C39.823170,114.716049 39.525352,114.482643 39.155426,113.965652 
	C39.379688,113.919022 39.676056,114.155960 40.046707,114.671173 
z"/>
<path fill="#EF784F" opacity="1.000000" stroke="none" 
	d="
M40.996361,115.704437 
	C40.796070,115.764313 40.516769,115.567719 40.147045,115.124847 
	C40.343529,115.068375 40.630440,115.258171 40.996361,115.704437 
z"/>
<path fill="#EF784F" opacity="1.000000" stroke="none" 
	d="
M42.141361,116.672722 
	C41.936028,116.759247 41.610592,116.592407 41.160179,116.174858 
	C41.363892,116.089218 41.692574,116.254288 42.141361,116.672722 
z"/>
<path fill="#F17D4D" opacity="1.000000" stroke="none" 
	d="
M46.097466,120.625839 
	C45.848240,120.693718 45.540722,120.473045 45.158150,119.968376 
	C45.401791,119.902016 45.720486,120.119644 46.097466,120.625839 
z"/>
<path fill="#EB825E" opacity="1.000000" stroke="none" 
	d="
M85.020584,85.268806 
	C85.249474,85.231026 85.504776,85.458984 85.782120,85.951721 
	C85.551781,85.989174 85.299393,85.761864 85.020584,85.268806 
z"/>
<path fill="#FEF7F3" opacity="1.000000" stroke="none" 
	d="
M98.146988,113.842407 
	C94.560760,107.300011 92.855774,100.396217 94.018761,92.458923 
	C94.396530,90.720543 94.805382,89.445824 95.447754,87.608215 
	C95.839905,86.378151 95.998535,85.710991 96.157158,85.043823 
	C96.157158,85.043823 96.069786,85.055481 96.381058,84.963615 
	C97.203613,83.971825 97.714905,83.071899 98.226196,82.171974 
	C98.226196,82.171974 98.203270,82.068436 98.461624,81.981651 
	C98.933487,81.341461 99.146996,80.788048 99.360504,80.234634 
	C99.360504,80.234634 99.490883,80.354706 99.581406,80.364616 
	C105.517708,74.849243 112.254410,70.815315 120.475128,72.220490 
	C125.951164,73.156532 131.131729,75.821175 136.665237,77.790695 
	C136.707214,77.541344 136.986313,75.883347 137.408432,73.891739 
	C138.859329,73.418060 140.171890,73.311852 141.474258,73.131836 
	C146.048752,72.499519 148.492905,74.100525 147.840591,79.474312 
	C147.768768,90.923584 147.389023,101.972969 147.573624,113.012909 
	C147.713501,121.377426 147.868362,129.589310 142.654724,137.145569 
	C142.565186,137.474213 142.590347,137.592041 142.328094,137.701385 
	C141.330200,138.520340 140.594559,139.229950 139.858917,139.939575 
	C139.542664,139.980835 139.291550,140.131027 138.658539,140.673798 
	C134.945221,142.540878 131.678986,144.124313 128.412750,145.707748 
	C127.486092,145.653671 126.559441,145.599594 124.872910,145.636642 
	C118.105270,144.443176 112.097504,143.158600 106.089737,141.874039 
	C106.089737,141.874039 105.992050,141.937210 105.886780,141.636292 
	C103.908875,139.765472 102.036240,138.195557 100.163612,136.625626 
	C99.877586,136.204742 99.591560,135.783859 99.094055,134.816956 
	C98.233055,131.851471 97.583534,129.432007 96.934013,127.012527 
	C96.934013,127.012527 97.117729,126.738083 97.556778,126.476624 
	C102.867386,125.546883 106.931694,125.382843 110.054306,130.908508 
	C113.145119,136.377899 123.897972,137.347900 130.108154,133.915787 
	C135.793594,130.773682 138.179565,124.028374 136.036438,116.747002 
	C127.640945,125.683823 117.699715,125.542969 107.157791,121.808388 
	C107.157791,121.808388 107.066826,121.846794 107.008568,121.623642 
	C106.632698,121.281853 106.315086,121.163216 105.997482,121.044571 
	C105.997482,121.044571 105.720215,120.859550 105.392776,120.621361 
	C104.726524,120.197517 104.387718,120.011864 104.048912,119.826202 
	C103.964012,119.501549 103.771179,119.264809 103.100159,118.764511 
	C101.191864,116.900955 99.653839,115.388885 98.115807,113.876808 
	C98.115807,113.876808 98.134323,113.853264 98.146988,113.842407 
M105.665604,103.369614 
	C108.243591,110.699905 114.246712,114.559502 122.134247,113.957848 
	C129.322189,113.409546 134.568222,108.858353 136.151550,101.125618 
	C135.941681,98.345261 136.297867,95.369797 135.419006,92.820023 
	C132.418182,84.113831 124.045914,80.263618 115.361664,83.185631 
	C107.079071,85.972504 103.207062,93.775177 105.665604,103.369614 
z"/>
<path fill="#EA6C51" opacity="1.000000" stroke="none" 
	d="
M97.852005,82.161652 
	C97.714905,83.071899 97.203613,83.971825 96.399841,85.003479 
	C96.564171,84.140587 97.020996,83.145958 97.852005,82.161652 
z"/>
<path fill="#EA6C51" opacity="1.000000" stroke="none" 
	d="
M99.033340,80.300301 
	C99.146996,80.788048 98.933487,81.341461 98.441406,82.030670 
	C98.343941,81.566307 98.525047,80.966133 99.033340,80.300301 
z"/>
<path fill="#EA6C51" opacity="1.000000" stroke="none" 
	d="
M95.851799,85.234268 
	C95.998535,85.710991 95.839905,86.378151 95.410095,87.272186 
	C95.274750,86.807602 95.410599,86.116165 95.851799,85.234268 
z"/>
<path fill="#ED8C5D" opacity="1.000000" stroke="none" 
	d="
M106.078331,142.205933 
	C112.097504,143.158600 118.105270,144.443176 124.541061,145.755371 
	C123.693779,149.662292 120.687027,147.932831 118.400101,147.558426 
	C114.830826,146.974106 111.345802,145.875137 107.414505,144.990936 
	C106.691589,144.171036 106.379257,143.354431 106.078331,142.205933 
z"/>
<path fill="#ED8C5D" opacity="1.000000" stroke="none" 
	d="
M128.806519,145.799591 
	C131.678986,144.124313 134.945221,142.540878 138.564117,140.877533 
	C136.195969,142.528320 133.475159,144.258987 130.377487,145.998505 
	C129.733841,145.968704 129.467056,145.930069 128.806519,145.799591 
z"/>
<path fill="#ED8C5D" opacity="1.000000" stroke="none" 
	d="
M100.117157,137.022522 
	C102.036240,138.195557 103.908875,139.765472 105.943161,141.622070 
	C104.093437,140.412292 102.082069,138.915863 100.117157,137.022522 
z"/>
<path fill="#ED8C5D" opacity="1.000000" stroke="none" 
	d="
M96.680458,127.222168 
	C97.583534,129.432007 98.233055,131.851471 98.906601,134.641296 
	C97.955688,133.585754 96.980766,132.159851 95.997620,130.369354 
	C96.135239,129.147125 96.281075,128.289459 96.680458,127.222168 
z"/>
<path fill="#ED8C5D" opacity="1.000000" stroke="none" 
	d="
M97.614182,141.538467 
	C98.059029,141.653381 98.328842,141.935837 98.598648,142.218307 
	C98.481651,142.330017 98.364655,142.441742 98.247665,142.553467 
	C97.978157,142.270981 97.708656,141.988510 97.614182,141.538467 
z"/>
<path fill="#ED8C5D" opacity="1.000000" stroke="none" 
	d="
M107.125809,122.142319 
	C117.699715,125.542969 127.640945,125.683823 136.036438,116.747002 
	C138.179565,124.028374 135.793594,130.773682 130.108154,133.915787 
	C123.897972,137.347900 113.145119,136.377899 110.054306,130.908508 
	C106.931694,125.382843 102.867386,125.546883 97.561111,126.311554 
	C99.664108,121.518456 103.886848,125.074326 107.300247,124.379906 
	C107.231552,123.746368 107.162689,123.111313 107.125809,122.142319 
z"/>
<path fill="#EB825E" opacity="1.000000" stroke="none" 
	d="
M98.080215,114.259193 
	C99.653839,115.388885 101.191864,116.900955 102.873047,118.704536 
	C100.029732,119.062218 98.216934,117.788383 98.080215,114.259193 
z"/>
<path fill="#EB825E" opacity="1.000000" stroke="none" 
	d="
M75.400261,124.722122 
	C75.559921,124.848808 75.582932,125.068100 75.605942,125.287399 
	C75.491837,125.129845 75.377724,124.972290 75.400261,124.722122 
z"/>
<path fill="#EB825E" opacity="1.000000" stroke="none" 
	d="
M104.171272,120.108093 
	C104.387718,120.011864 104.726524,120.197517 105.226410,120.631363 
	C105.022865,120.716362 104.658249,120.553177 104.171272,120.108093 
z"/>
<path fill="#ED8C5D" opacity="1.000000" stroke="none" 
	d="
M106.123657,121.264893 
	C106.315086,121.163216 106.632698,121.281853 107.054321,121.642197 
	C106.855492,121.750999 106.552666,121.618103 106.123657,121.264893 
z"/>
<path fill="#ED8C5D" opacity="1.000000" stroke="none" 
	d="
M140.241119,139.958359 
	C140.594559,139.229950 141.330200,138.520340 142.362762,137.750641 
	C141.980896,138.452759 141.302109,139.214951 140.241119,139.958359 
z"/>
<path fill="#EB7352" opacity="1.000000" stroke="none" 
	d="
M105.675171,102.705368 
	C103.207062,93.775177 107.079071,85.972504 115.361664,83.185631 
	C124.045914,80.263618 132.418182,84.113831 135.419006,92.820023 
	C136.297867,95.369797 135.941681,98.345261 135.683380,101.520233 
	C133.558456,100.483223 131.901703,99.051605 130.244949,97.619987 
	C125.714638,98.811371 120.982742,98.982872 116.249565,99.104111 
	C114.114212,99.158813 111.976280,99.113380 109.168663,99.113380 
	C109.144028,99.046272 108.636238,97.662704 108.128441,96.279144 
	C107.712822,96.290092 107.297203,96.301041 106.881577,96.311996 
	C106.479446,98.443115 106.077309,100.574242 105.675171,102.705368 
z"/>
<path fill="#EE7A53" opacity="1.000000" stroke="none" 
	d="
M105.670387,103.037491 
	C106.077309,100.574242 106.479446,98.443115 106.881577,96.311996 
	C107.297203,96.301041 107.712822,96.290092 108.128441,96.279144 
	C108.636238,97.662704 109.144028,99.046272 109.168663,99.113380 
	C111.976280,99.113380 114.114212,99.158813 116.249565,99.104111 
	C120.982742,98.982872 125.714638,98.811371 130.244949,97.619987 
	C131.901703,99.051605 133.558456,100.483223 135.567871,101.956184 
	C134.568222,108.858353 129.322189,113.409546 122.134247,113.957848 
	C114.246712,114.559502 108.243591,110.699905 105.670387,103.037491 
z"/>
</svg>